<mxfile host="Electron" modified="2022-05-04T05:38:08.822Z" agent="5.0 (Macintosh; Intel Mac OS X 10_15_7) AppleWebKit/537.36 (KHTML, like Gecko) draw.io/17.4.2 Chrome/100.0.4896.60 Electron/18.0.1 Safari/537.36" etag="9KonmIbkvNJpSxmuZQBz" compressed="false" version="17.4.2" type="device">
  <diagram id="AhTp1HGSlQsYtPf3dEuc" name="Page-1">
    <mxGraphModel dx="883" dy="1499" grid="1" gridSize="10" guides="1" tooltips="1" connect="1" arrows="1" fold="1" page="1" pageScale="1" pageWidth="1169" pageHeight="827" math="0" shadow="0">
      <root>
        <mxCell id="0" />
        <mxCell id="1" parent="0" />
        <mxCell id="sDxWkKxitdXXN-sfG3yv-21" value="" style="rounded=0;whiteSpace=wrap;html=1;verticalAlign=top;" parent="1" vertex="1">
          <mxGeometry x="520" y="-458.5" width="80" height="80" as="geometry" />
        </mxCell>
        <mxCell id="sDxWkKxitdXXN-sfG3yv-20" value="" style="rounded=0;whiteSpace=wrap;html=1;verticalAlign=top;" parent="1" vertex="1">
          <mxGeometry x="400" y="-460" width="80" height="80" as="geometry" />
        </mxCell>
        <mxCell id="sDxWkKxitdXXN-sfG3yv-13" value="" style="rounded=0;whiteSpace=wrap;html=1;verticalAlign=top;" parent="1" vertex="1">
          <mxGeometry x="280" y="-460" width="80" height="80" as="geometry" />
        </mxCell>
        <mxCell id="sDxWkKxitdXXN-sfG3yv-12" value="" style="rounded=0;whiteSpace=wrap;html=1;align=center;verticalAlign=top;" parent="1" vertex="1">
          <mxGeometry x="160" y="-460" width="80" height="80" as="geometry" />
        </mxCell>
        <mxCell id="sDxWkKxitdXXN-sfG3yv-1" value="" style="shape=mxgraph.electrical.electro-mechanical.twoWaySwitch;elSwitchState=2;" parent="1" vertex="1">
          <mxGeometry x="370" y="-170" width="80" height="30" as="geometry" />
        </mxCell>
        <mxCell id="sDxWkKxitdXXN-sfG3yv-2" value="" style="shape=mxgraph.electrical.electro-mechanical.singleSwitch;elSwitchState=off;" parent="1" vertex="1">
          <mxGeometry x="370" y="-220" width="80" height="20" as="geometry" />
        </mxCell>
        <mxCell id="sDxWkKxitdXXN-sfG3yv-3" value="" style="shape=mxgraph.electrical.electro-mechanical.singleSwitch;elSwitchState=on;" parent="1" vertex="1">
          <mxGeometry x="280" y="-440" width="80" height="20" as="geometry" />
        </mxCell>
        <mxCell id="sDxWkKxitdXXN-sfG3yv-8" value="" style="shape=mxgraph.electrical.electro-mechanical.singleSwitch;elSwitchState=off;" parent="1" vertex="1">
          <mxGeometry x="160" y="-440" width="80" height="20" as="geometry" />
        </mxCell>
        <mxCell id="sDxWkKxitdXXN-sfG3yv-9" value="" style="pointerEvents=1;verticalLabelPosition=bottom;shadow=0;dashed=0;align=center;html=1;verticalAlign=top;shape=mxgraph.electrical.inductors.inductor_3;" parent="1" vertex="1">
          <mxGeometry x="160" y="-410" width="80" height="10" as="geometry" />
        </mxCell>
        <mxCell id="sDxWkKxitdXXN-sfG3yv-11" value="" style="pointerEvents=1;verticalLabelPosition=bottom;shadow=0;dashed=0;align=center;html=1;verticalAlign=top;shape=mxgraph.electrical.inductors.inductor_3;" parent="1" vertex="1">
          <mxGeometry x="280" y="-410" width="80" height="10" as="geometry" />
        </mxCell>
        <mxCell id="sDxWkKxitdXXN-sfG3yv-14" value="" style="rounded=0;whiteSpace=wrap;html=1;" parent="1" vertex="1">
          <mxGeometry x="160" y="-340" width="80" height="80" as="geometry" />
        </mxCell>
        <mxCell id="sDxWkKxitdXXN-sfG3yv-15" value="" style="pointerEvents=1;verticalLabelPosition=bottom;shadow=0;dashed=0;align=center;html=1;verticalAlign=top;shape=mxgraph.electrical.inductors.inductor_3;" parent="1" vertex="1">
          <mxGeometry x="160" y="-290" width="80" height="10" as="geometry" />
        </mxCell>
        <mxCell id="sDxWkKxitdXXN-sfG3yv-16" value="" style="shape=mxgraph.electrical.electro-mechanical.twoWaySwitch;elSwitchState=2;" parent="1" vertex="1">
          <mxGeometry x="160" y="-330" width="80" height="30" as="geometry" />
        </mxCell>
        <mxCell id="sDxWkKxitdXXN-sfG3yv-17" value="1 Form A" style="text;html=1;strokeColor=none;fillColor=none;align=center;verticalAlign=middle;whiteSpace=wrap;rounded=0;" parent="1" vertex="1">
          <mxGeometry x="170" y="-380" width="60" height="20" as="geometry" />
        </mxCell>
        <mxCell id="sDxWkKxitdXXN-sfG3yv-18" value="1 Form B" style="text;html=1;strokeColor=none;fillColor=none;align=center;verticalAlign=middle;whiteSpace=wrap;rounded=0;" parent="1" vertex="1">
          <mxGeometry x="290" y="-380" width="60" height="20" as="geometry" />
        </mxCell>
        <mxCell id="sDxWkKxitdXXN-sfG3yv-19" value="1 Form C" style="text;html=1;strokeColor=none;fillColor=none;align=center;verticalAlign=middle;whiteSpace=wrap;rounded=0;" parent="1" vertex="1">
          <mxGeometry x="170" y="-260" width="60" height="20" as="geometry" />
        </mxCell>
        <mxCell id="sDxWkKxitdXXN-sfG3yv-26" value="1 Form X" style="text;html=1;strokeColor=none;fillColor=none;align=center;verticalAlign=middle;whiteSpace=wrap;rounded=0;" parent="1" vertex="1">
          <mxGeometry x="410" y="-380" width="60" height="20" as="geometry" />
        </mxCell>
        <mxCell id="sDxWkKxitdXXN-sfG3yv-29" value="" style="shape=mxgraph.electrical.electro-mechanical.liquidLevelActuatedSwitch;elSwitchState=on;" parent="1" vertex="1">
          <mxGeometry x="520" y="-448.5" width="80" height="30" as="geometry" />
        </mxCell>
        <mxCell id="sDxWkKxitdXXN-sfG3yv-30" value="" style="shape=mxgraph.electrical.electro-mechanical.liquidLevelActuatedSwitch;elSwitchState=off;" parent="1" vertex="1">
          <mxGeometry x="400" y="-448.5" width="80" height="30" as="geometry" />
        </mxCell>
        <mxCell id="sDxWkKxitdXXN-sfG3yv-24" value="" style="rounded=0;whiteSpace=wrap;html=1;strokeColor=none;" parent="1" vertex="1">
          <mxGeometry x="540" y="-430" width="40" height="40" as="geometry" />
        </mxCell>
        <mxCell id="sDxWkKxitdXXN-sfG3yv-22" value="" style="pointerEvents=1;verticalLabelPosition=bottom;shadow=0;dashed=0;align=center;html=1;verticalAlign=top;shape=mxgraph.electrical.inductors.inductor_3;" parent="1" vertex="1">
          <mxGeometry x="520" y="-410" width="80" height="10" as="geometry" />
        </mxCell>
        <mxCell id="sDxWkKxitdXXN-sfG3yv-25" value="" style="rounded=0;whiteSpace=wrap;html=1;strokeColor=none;" parent="1" vertex="1">
          <mxGeometry x="430" y="-440" width="20" height="54.5" as="geometry" />
        </mxCell>
        <mxCell id="sDxWkKxitdXXN-sfG3yv-4" value="" style="pointerEvents=1;verticalLabelPosition=bottom;shadow=0;dashed=0;align=center;html=1;verticalAlign=top;shape=mxgraph.electrical.inductors.inductor_3;" parent="1" vertex="1">
          <mxGeometry x="400" y="-410" width="80" height="10" as="geometry" />
        </mxCell>
        <mxCell id="sDxWkKxitdXXN-sfG3yv-31" value="1 Form Y" style="text;html=1;strokeColor=none;fillColor=none;align=center;verticalAlign=middle;whiteSpace=wrap;rounded=0;" parent="1" vertex="1">
          <mxGeometry x="530" y="-378.5" width="60" height="18.5" as="geometry" />
        </mxCell>
        <mxCell id="sDxWkKxitdXXN-sfG3yv-32" value="" style="pointerEvents=1;verticalLabelPosition=bottom;shadow=0;dashed=0;align=center;html=1;verticalAlign=top;shape=mxgraph.electrical.inductors.inductor_3;" parent="1" vertex="1">
          <mxGeometry x="370" y="-250" width="80" height="10" as="geometry" />
        </mxCell>
        <mxCell id="sDxWkKxitdXXN-sfG3yv-34" value="" style="rounded=0;whiteSpace=wrap;html=1;" parent="1" vertex="1">
          <mxGeometry x="280" y="-340" width="80" height="80" as="geometry" />
        </mxCell>
        <mxCell id="sDxWkKxitdXXN-sfG3yv-35" value="" style="pointerEvents=1;verticalLabelPosition=bottom;shadow=0;dashed=0;align=center;html=1;verticalAlign=top;shape=mxgraph.electrical.inductors.inductor_3;" parent="1" vertex="1">
          <mxGeometry x="280" y="-273" width="80" height="10" as="geometry" />
        </mxCell>
        <mxCell id="sDxWkKxitdXXN-sfG3yv-36" value="" style="shape=mxgraph.electrical.electro-mechanical.twoWaySwitch;elSwitchState=2;" parent="1" vertex="1">
          <mxGeometry x="280" y="-305" width="80" height="30" as="geometry" />
        </mxCell>
        <mxCell id="sDxWkKxitdXXN-sfG3yv-37" value="2 Form C" style="text;html=1;strokeColor=none;fillColor=none;align=center;verticalAlign=middle;whiteSpace=wrap;rounded=0;" parent="1" vertex="1">
          <mxGeometry x="290" y="-260" width="60" height="20" as="geometry" />
        </mxCell>
        <mxCell id="sDxWkKxitdXXN-sfG3yv-38" value="" style="shape=mxgraph.electrical.electro-mechanical.twoWaySwitch;elSwitchState=2;" parent="1" vertex="1">
          <mxGeometry x="280" y="-338" width="80" height="30" as="geometry" />
        </mxCell>
        <mxCell id="sDxWkKxitdXXN-sfG3yv-39" value="" style="shape=mxgraph.electrical.electro-mechanical.singleSwitch;elSwitchState=on;" parent="1" vertex="1">
          <mxGeometry x="490" y="-220" width="80" height="20" as="geometry" />
        </mxCell>
      </root>
    </mxGraphModel>
  </diagram>
</mxfile>
